<?xml version="1.0" encoding="utf-8"?>
<!-- Svg Vector Icons : http://www.onlinewebfonts.com/icon -->
<!DOCTYPE svg PUBLIC "-//W3C//DTD SVG 1.1//EN" "http://www.w3.org/Graphics/SVG/1.1/DTD/svg11.dtd">
<svg version="1.1" xmlns="http://www.w3.org/2000/svg" xmlns:xlink="http://www.w3.org/1999/xlink" x="0px" y="0px" viewBox="0 0 256 256" enable-background="new 0 0 256 256" xml:space="preserve">
<metadata> Svg Vector Icons : http://www.onlinewebfonts.com/icon </metadata>
<g><g><g><path fill="#000000" d="M121.1,10.2c-21,1.5-40,7.7-56.8,18.5c-13.6,8.7-26.1,21.2-35.2,34.9C9.8,92.9,4.8,130.4,15.7,164.2c5.9,18.1,15.1,33.3,29,47.1c34.9,35,87,44.5,132.3,24c21.3-9.6,40.5-27,52.6-47.5c21.7-36.7,21.9-82.4,0.4-119.3c-9.2-15.7-23-30.2-38.3-40C171,15.3,144.7,8.5,121.1,10.2z M143.7,19.3c43.9,6.5,79.8,38.8,90.7,81.7c2.5,9.9,3.2,15.8,3.2,27.1c0,11.3-0.7,17.2-3.2,27.1c-9.9,38.8-40.5,69.5-79.4,79.4c-9.9,2.5-15.8,3.2-27.1,3.2c-11.3,0-17.2-0.7-27.1-3.2c-38.9-9.9-69.5-40.5-79.4-79.4c-2.5-10-3.2-15.8-3.2-27.1c0-11.3,0.7-17.2,3.2-27.1c9.6-37.6,38.7-67.7,76-78.4c6.2-1.8,13.6-3.2,20-3.9C123.5,18,137.4,18.4,143.7,19.3z"/></g></g></g>
</svg>