<?xml version="1.0" encoding="utf-8"?>
<!-- Svg Vector Icons : http://www.onlinewebfonts.com/icon -->
<!DOCTYPE svg PUBLIC "-//W3C//DTD SVG 1.1//EN" "http://www.w3.org/Graphics/SVG/1.1/DTD/svg11.dtd">
<svg version="1.1" xmlns="http://www.w3.org/2000/svg" xmlns:xlink="http://www.w3.org/1999/xlink" x="0px" y="0px" viewBox="0 0 256 256" enable-background="new 0 0 256 256" xml:space="preserve">
<metadata> Svg Vector Icons : http://www.onlinewebfonts.com/icon </metadata>
<g><g><g><path fill="#000000" d="M118.8,10.1c-6.9,0.7-8.9,1-10.1,2c-1,0.8-1.2,1.3-1.1,3.1c0.1,1.6,0.4,2.3,1.4,3.1c1.2,0.9,1.5,0.9,7.6,0.3c12.5-1.2,27.5-0.1,38.8,2.8c3.1,0.8,3.8,0.8,5.1,0.3c3.1-1.3,3-6.2-0.1-7.3c-2.3-0.8-11-2.7-16.6-3.5C137.4,10,124.5,9.6,118.8,10.1z"/><path fill="#000000" d="M88.2,16.7c-13.7,4.9-27.3,12.8-37.1,21.5c-1.7,1.5-2.1,2.2-2.1,3.6c0,2.4,1.6,4.1,4,4.1c1.4,0,2.4-0.5,5.6-3.2c9-7.3,22.5-15,32.6-18.3c2.6-0.9,5.2-1.9,5.7-2.2c1.3-0.8,1.8-3.4,1-4.9C96.6,14.3,95,14.2,88.2,16.7z"/><path fill="#000000" d="M172.2,21.2c-1.3,1.2-1.6,3.4-0.7,4.9c0.3,0.5,3.2,2.3,6.5,4c10.8,5.5,18,10.8,27.9,20.4c5.1,4.9,6.2,5.8,7.4,5.8c2.2,0,3.8-1.8,3.8-4.3c0-1.9-0.2-2.2-6-7.9c-9.2-9.1-18.8-16-30.1-21.6C175.7,19.7,173.9,19.4,172.2,21.2z"/><path fill="#000000" d="M39,50.7C36.7,51.9,28.8,63,24.4,71c-4.6,8.2-10,22.1-10,25.3c0,1.9,1.9,3.7,3.9,3.7c2.7,0,3.4-0.9,5.6-7.4c3.8-11.1,9.7-22.1,17.2-31.8c4.5-5.8,4.8-7,2.6-9.3C42.1,50,40.7,49.8,39,50.7z"/><path fill="#000000" d="M221.1,63c-2,1.7-1.7,3.5,1.1,8.3c6.3,10.3,11.1,22.9,13.5,34.6c1.5,7.1,2.2,8.2,5.1,8.2c2,0,3.5-1.1,3.9-3c0.7-2.5-3.4-18.3-6.9-27.1c-3.4-8.4-10.2-20.6-12.1-21.6C224.1,61.5,222.4,61.8,221.1,63z"/><path fill="#000000" d="M12.3,109.9c-1.7,1.6-2.3,5.6-2.3,18c0,11.5,0.9,19,3.4,28.9c1.1,4.3,1.6,5.6,2.6,6.4c1.5,1.3,3.3,1.4,4.8,0.3c2-1.4,2.1-2.6,0.6-8.3c-2.5-9.6-3.1-14.6-3.1-26.2c0-5.8,0.1-12.2,0.2-14.3c0.2-3.6,0.2-3.7-1.1-4.8C15.9,108.6,13.9,108.6,12.3,109.9z"/><path fill="#000000" d="M239.2,124.7c-1.1,1.1-1.2,1.7-1.5,8.2c-0.6,13.1-2.9,23.6-7.7,36l-2.2,5.6l0.8,1.7c1,2.1,3.1,2.9,5.1,1.9c1.7-0.8,3.2-3.9,6-12.2c3.9-11.4,5.9-22.7,6.1-34c0.1-5.6,0-5.9-1-7.1C243.4,123,240.8,123,239.2,124.7z"/><path fill="#000000" d="M22.2,173.4c-2.2,1.7-2.1,3.2,0.6,8.4c5.5,10.8,12.7,20.7,21.7,29.7c4.5,4.5,6.8,6.5,7.9,6.8c3.1,0.7,6.1-2.6,4.8-5.3c-0.3-0.7-2.7-3.2-5.3-5.7c-8.5-8.1-16.2-18.3-21.4-28.4c-1.4-2.8-3-5.4-3.6-5.8C25.5,172.1,23.7,172.2,22.2,173.4z"/><path fill="#000000" d="M221.2,186.7c-0.6,0.6-2.4,3-4,5.3c-5.9,8.5-14.3,17.1-23,23.5c-7.1,5.2-7.8,5.9-7.8,7.7c0,1.1,0.4,2,1.4,3c2,2,3.8,1.6,8.1-1.6c11.7-8.5,22.1-19.1,29.7-30.2c2.5-3.8,2.8-5.8,1-7.6C225.3,185.2,222.7,185.2,221.2,186.7z"/><path fill="#000000" d="M64.7,221.8c-2,2-1.9,4,0.3,6c2.7,2.5,17.4,9.6,25.6,12.3c7.6,2.5,17.8,4.8,21.1,4.8c3.2,0,5-2.7,3.8-5.6c-0.7-1.6-1.7-2.2-5.9-2.9c-12.7-2.1-25.3-6.7-37.4-13.6c-2.3-1.3-4.6-2.4-5.2-2.4C66.5,220.4,65.4,221,64.7,221.8z"/><path fill="#000000" d="M171.7,228.9c-11.9,5.2-28.6,8.9-39.8,8.9c-3.9,0-5.7,0.8-6.6,2.8c-0.8,1.9,0,4,2,5c3.4,1.8,24-1.1,36.3-5c7.3-2.4,13.8-5.2,14.8-6.5c1.2-1.6,1.2-3.5-0.1-5C176.8,227.3,175.5,227.3,171.7,228.9z"/></g></g></g>
</svg>